# xmcd
#
# Track frame offsets:
#	150
#	14548
#	32223
#	45980
#	61188
#	75879
#	89211
#	104613
#	126994
#	141227
#	154567
#	166230
#	177632
#	191359
#	205450
#
# Disc length: 2919 seconds
#
# Revision: 1
# Processed by: cddbd v1.5.2PL0 Copyright (c) Steve Scherf et al.
# Submitted via: audiograbber 1.83.01
#
DISCID=cc0b650f
DTITLE=Various Artist - SA-Huumorinkukkia:30 Suosikkia - CD 2 - 2
DYEAR=2015
DGENRE=Pop
TTITLE0=7 Seinähullua Veljestä - Nakit Ja Muusi
TTITLE1=Auvo - Elämä On Kliffaa
TTITLE2=Solistiyhtye Suomi - Mahtava Peräsin Ja Pulleat Purjeet
TTITLE3=Marja Tyrni - Suut Makiaks!
TTITLE4=Tippavaaran Isäntä - Rigalle
TTITLE5=Erkki Liikanen - Jokkantii
TTITLE6=Reijo Tani Ja Pertti Metsärinteen Yhtye - Seuramatkat
TTITLE7=Tyyne - Fiilaten Ja Höyläten
TTITLE8=Jamppa Kääriäinen and Taastaorkesteri - Kesäkatu
TTITLE9=Markku Karjalainen - Läähätän Ja Läkähdyn
TTITLE10=Veikko Lavi - Sukuvika, Suksi Ei Luista
TTITLE11=Viktor Kalborek - Pikku Pukki
TTITLE12=Pekko Aikamiespoika - Meijeriauton Madonna
TTITLE13=Simo Salminen - Alle Lujaa
TTITLE14=Vesa-Matti Loiri - Uuno Turhapuro
EXTD=
EXTT0=
EXTT1=
EXTT2=
EXTT3=
EXTT4=
EXTT5=
EXTT6=
EXTT7=
EXTT8=
EXTT9=
EXTT10=
EXTT11=
EXTT12=
EXTT13=
EXTT14=
PLAYORDER=
